<svg width="142" height="13" viewBox="0 0 142 13" fill="none" xmlns="http://www.w3.org/2000/svg">
<path d="M3.062 9.268C3.378 9.268 3.672 9.216 3.944 9.112C4.22 9.008 4.474 8.876 4.706 8.716L5.198 9.376C4.922 9.612 4.59 9.798 4.202 9.934C3.814 10.07 3.434 10.138 3.062 10.138C2.434 10.138 1.898 10.004 1.454 9.736C1.014 9.464 0.678 9.084 0.446 8.596C0.214 8.104 0.0980001 7.528 0.0980001 6.868C0.0980001 6.236 0.214 5.67 0.446 5.17C0.682 4.666 1.02 4.27 1.46 3.982C1.904 3.694 2.442 3.55 3.074 3.55C3.478 3.55 3.856 3.612 4.208 3.736C4.564 3.856 4.89 4.038 5.186 4.282L4.694 4.954C4.426 4.766 4.156 4.626 3.884 4.534C3.616 4.438 3.342 4.39 3.062 4.39C2.518 4.39 2.07 4.594 1.718 5.002C1.366 5.41 1.19 6.032 1.19 6.868C1.19 7.428 1.27 7.886 1.43 8.242C1.594 8.594 1.816 8.854 2.096 9.022C2.38 9.186 2.702 9.268 3.062 9.268ZM8.40931 3.682V8.158C8.40931 8.574 8.49531 8.874 8.66731 9.058C8.83931 9.242 9.10731 9.334 9.47131 9.334C9.81931 9.334 10.1473 9.236 10.4553 9.04C10.7673 8.84 11.0093 8.604 11.1813 8.332V3.682H12.1893V10H11.3313L11.2473 9.148C10.9993 9.468 10.6933 9.714 10.3293 9.886C9.96531 10.054 9.59731 10.138 9.22531 10.138C8.61331 10.138 8.15531 9.976 7.85131 9.652C7.55131 9.324 7.40131 8.866 7.40131 8.278V3.682H8.40931ZM14.6566 10V9.226H15.6406V4.456H14.6566V3.682H16.4086L16.5946 5.176C16.8386 4.656 17.1346 4.254 17.4826 3.97C17.8306 3.686 18.2906 3.544 18.8626 3.544C19.0386 3.544 19.1946 3.558 19.3306 3.586C19.4706 3.61 19.6126 3.642 19.7566 3.682L19.4626 4.582C19.3306 4.546 19.2106 4.52 19.1026 4.504C18.9946 4.484 18.8706 4.474 18.7306 4.474C18.2466 4.474 17.8306 4.646 17.4826 4.99C17.1346 5.334 16.8566 5.854 16.6486 6.55V9.226H17.9326V10H14.6566ZM18.7846 5.818V4.444L18.8866 3.682H19.7566L19.6126 5.818H18.7846ZM21.8519 10V9.226H22.8359V4.456H21.8519V3.682H23.6039L23.7899 5.176C24.0339 4.656 24.3299 4.254 24.6779 3.97C25.0259 3.686 25.4859 3.544 26.0579 3.544C26.2339 3.544 26.3899 3.558 26.5259 3.586C26.6659 3.61 26.8079 3.642 26.9519 3.682L26.6579 4.582C26.5259 4.546 26.4059 4.52 26.2979 4.504C26.1899 4.484 26.0659 4.474 25.9259 4.474C25.4419 4.474 25.0259 4.646 24.6779 4.99C24.3299 5.334 24.0519 5.854 23.8439 6.55V9.226H25.1279V10H21.8519ZM25.9799 5.818V4.444L26.0819 3.682H26.9519L26.8079 5.818H25.9799ZM29.7793 7.198C29.7993 7.686 29.8933 8.086 30.0613 8.398C30.2293 8.706 30.4513 8.934 30.7273 9.082C31.0033 9.226 31.3033 9.298 31.6273 9.298C31.9513 9.298 32.2433 9.25 32.5033 9.154C32.7673 9.058 33.0373 8.916 33.3133 8.728L33.7873 9.394C33.4913 9.626 33.1533 9.808 32.7733 9.94C32.3973 10.072 32.0113 10.138 31.6153 10.138C31.0033 10.138 30.4813 10 30.0493 9.724C29.6173 9.448 29.2873 9.064 29.0593 8.572C28.8353 8.076 28.7233 7.502 28.7233 6.85C28.7233 6.21 28.8373 5.642 29.0653 5.146C29.2933 4.65 29.6133 4.26 30.0253 3.976C30.4373 3.692 30.9233 3.55 31.4833 3.55C32.0153 3.55 32.4733 3.676 32.8573 3.928C33.2413 4.176 33.5353 4.532 33.7393 4.996C33.9473 5.456 34.0513 6.006 34.0513 6.646C34.0513 6.754 34.0493 6.856 34.0453 6.952C34.0413 7.044 34.0353 7.126 34.0273 7.198H29.7793ZM31.4953 4.378C31.0273 4.378 30.6353 4.544 30.3193 4.876C30.0073 5.208 29.8293 5.722 29.7853 6.418H33.0793C33.0673 5.742 32.9193 5.234 32.6353 4.894C32.3513 4.55 31.9713 4.378 31.4953 4.378ZM36.1826 10V3.682H37.0406L37.1186 4.558C37.3746 4.234 37.6946 3.986 38.0786 3.814C38.4666 3.638 38.8426 3.55 39.2066 3.55C39.8266 3.55 40.2766 3.714 40.5566 4.042C40.8406 4.37 40.9826 4.826 40.9826 5.41V10H39.9746V6.154C39.9746 5.722 39.9506 5.374 39.9026 5.11C39.8546 4.842 39.7546 4.648 39.6026 4.528C39.4506 4.404 39.2146 4.342 38.8946 4.342C38.6466 4.342 38.4126 4.396 38.1926 4.504C37.9766 4.612 37.7826 4.748 37.6106 4.912C37.4426 5.072 37.3026 5.234 37.1906 5.398V10H36.1826ZM48.3939 9.682C48.1779 9.826 47.9159 9.938 47.6079 10.018C47.2999 10.098 46.9979 10.138 46.7019 10.138C46.0219 10.138 45.4979 9.96 45.1299 9.604C44.7619 9.248 44.5779 8.79 44.5779 8.23V4.462H43.1259V3.682H44.5779V2.248L45.5859 2.128V3.682H47.7699L47.6499 4.462H45.5859V8.218C45.5859 8.57 45.6779 8.838 45.8619 9.022C46.0499 9.206 46.3599 9.298 46.7919 9.298C47.0279 9.298 47.2459 9.27 47.4459 9.214C47.6459 9.158 47.8319 9.086 48.0039 8.998L48.3939 9.682ZM53.0332 1.138V8.44C53.0332 8.752 53.1292 8.974 53.3212 9.106C53.5172 9.234 53.7692 9.298 54.0772 9.298C54.2692 9.298 54.4512 9.278 54.6232 9.238C54.7952 9.198 54.9672 9.144 55.1392 9.076L55.4092 9.814C55.2372 9.898 55.0232 9.972 54.7672 10.036C54.5152 10.104 54.2292 10.138 53.9092 10.138C53.3492 10.138 52.8952 9.984 52.5472 9.676C52.1992 9.364 52.0252 8.934 52.0252 8.386V1.936H50.0872V1.138H53.0332ZM63.0245 3.682L60.8045 10.042C60.6565 10.47 60.4685 10.862 60.2405 11.218C60.0165 11.574 59.7225 11.868 59.3585 12.1C58.9985 12.336 58.5405 12.482 57.9845 12.538L57.8285 11.734C58.2645 11.662 58.6085 11.552 58.8605 11.404C59.1125 11.256 59.3105 11.066 59.4545 10.834C59.6025 10.602 59.7325 10.324 59.8445 10H59.5085L57.3005 3.682H58.3805L60.1925 9.232L61.9805 3.682H63.0245ZM76.8391 10H75.4111L74.5951 5.362L73.7071 10H72.3151L71.1631 3.682H72.1951L72.9991 9.376L74.0071 4.486H75.2011L76.1551 9.376L76.9591 3.682H77.9431L76.8391 10ZM81.7604 3.55C82.3564 3.55 82.8544 3.686 83.2544 3.958C83.6584 4.226 83.9604 4.606 84.1604 5.098C84.3644 5.59 84.4664 6.17 84.4664 6.838C84.4664 7.482 84.3624 8.052 84.1544 8.548C83.9464 9.044 83.6404 9.434 83.2364 9.718C82.8364 9.998 82.3404 10.138 81.7484 10.138C81.1564 10.138 80.6584 10.002 80.2544 9.73C79.8504 9.458 79.5444 9.076 79.3364 8.584C79.1324 8.088 79.0304 7.51 79.0304 6.85C79.0304 6.198 79.1344 5.624 79.3424 5.128C79.5504 4.632 79.8564 4.246 80.2604 3.97C80.6684 3.69 81.1684 3.55 81.7604 3.55ZM81.7604 4.372C81.2164 4.372 80.8044 4.574 80.5244 4.978C80.2484 5.378 80.1104 6.002 80.1104 6.85C80.1104 7.682 80.2464 8.3 80.5184 8.704C80.7944 9.108 81.2044 9.31 81.7484 9.31C82.2924 9.31 82.7004 9.108 82.9724 8.704C83.2484 8.3 83.3864 7.678 83.3864 6.838C83.3864 5.998 83.2504 5.378 82.9784 4.978C82.7064 4.574 82.3004 4.372 81.7604 4.372ZM86.6098 10V9.226H87.5938V4.456H86.6098V3.682H88.3618L88.5478 5.176C88.7918 4.656 89.0878 4.254 89.4358 3.97C89.7838 3.686 90.2438 3.544 90.8158 3.544C90.9918 3.544 91.1478 3.558 91.2838 3.586C91.4238 3.61 91.5658 3.642 91.7098 3.682L91.4158 4.582C91.2838 4.546 91.1638 4.52 91.0558 4.504C90.9478 4.484 90.8238 4.474 90.6838 4.474C90.1998 4.474 89.7838 4.646 89.4358 4.99C89.0878 5.334 88.8098 5.854 88.6018 6.55V9.226H89.8858V10H86.6098ZM90.7378 5.818V4.444L90.8398 3.682H91.7098L91.5658 5.818H90.7378ZM99.0371 3.682L96.1931 6.526L99.3671 10H98.0411L94.9331 6.55L97.7291 3.682H99.0371ZM94.8191 1.012V10H93.8111V1.138L94.8191 1.012ZM104.138 3.682V9.202H105.92V10H101.18V9.202H103.13V4.48H101.24V3.682H104.138ZM103.334 0.723999C103.558 0.723999 103.736 0.791999 103.868 0.927999C104.004 1.064 104.072 1.23 104.072 1.426C104.072 1.63 104.004 1.802 103.868 1.942C103.736 2.078 103.558 2.146 103.334 2.146C103.122 2.146 102.948 2.078 102.812 1.942C102.676 1.802 102.608 1.63 102.608 1.426C102.608 1.23 102.676 1.064 102.812 0.927999C102.948 0.791999 103.122 0.723999 103.334 0.723999ZM108.136 10V3.682H108.994L109.072 4.558C109.328 4.234 109.648 3.986 110.032 3.814C110.42 3.638 110.796 3.55 111.16 3.55C111.78 3.55 112.23 3.714 112.51 4.042C112.794 4.37 112.936 4.826 112.936 5.41V10H111.928V6.154C111.928 5.722 111.904 5.374 111.856 5.11C111.808 4.842 111.708 4.648 111.556 4.528C111.404 4.404 111.168 4.342 110.848 4.342C110.6 4.342 110.366 4.396 110.146 4.504C109.93 4.612 109.736 4.748 109.564 4.912C109.396 5.072 109.256 5.234 109.144 5.398V10H108.136ZM120.467 3.01L120.779 3.958C120.511 4.042 120.225 4.094 119.921 4.114C119.617 4.134 119.287 4.144 118.931 4.144C119.295 4.312 119.569 4.53 119.753 4.798C119.937 5.062 120.029 5.374 120.029 5.734C120.029 6.15 119.935 6.52 119.747 6.844C119.559 7.168 119.287 7.422 118.931 7.606C118.579 7.79 118.153 7.882 117.653 7.882C117.441 7.882 117.263 7.872 117.119 7.852C116.979 7.832 116.843 7.802 116.711 7.762C116.615 7.826 116.535 7.914 116.471 8.026C116.411 8.138 116.381 8.254 116.381 8.374C116.381 8.526 116.441 8.652 116.561 8.752C116.681 8.852 116.903 8.902 117.227 8.902H118.367C118.791 8.902 119.171 8.978 119.507 9.13C119.847 9.282 120.113 9.486 120.305 9.742C120.501 9.998 120.599 10.29 120.599 10.618C120.599 11.238 120.335 11.714 119.807 12.046C119.283 12.378 118.541 12.544 117.581 12.544C116.909 12.544 116.379 12.474 115.991 12.334C115.603 12.198 115.325 11.988 115.157 11.704C114.993 11.424 114.911 11.07 114.911 10.642H115.823C115.823 10.886 115.871 11.088 115.967 11.248C116.063 11.408 116.237 11.526 116.489 11.602C116.741 11.682 117.103 11.722 117.575 11.722C118.039 11.722 118.417 11.682 118.709 11.602C119.005 11.526 119.223 11.41 119.363 11.254C119.507 11.102 119.579 10.912 119.579 10.684C119.579 10.384 119.443 10.158 119.171 10.006C118.899 9.854 118.559 9.778 118.151 9.778H117.023C116.479 9.778 116.077 9.658 115.817 9.418C115.561 9.178 115.433 8.902 115.433 8.59C115.433 8.386 115.491 8.188 115.607 7.996C115.727 7.804 115.901 7.634 116.129 7.486C115.765 7.294 115.497 7.056 115.325 6.772C115.153 6.488 115.067 6.144 115.067 5.74C115.067 5.312 115.173 4.934 115.385 4.606C115.597 4.274 115.893 4.014 116.273 3.826C116.653 3.638 117.091 3.544 117.587 3.544C118.119 3.54 118.551 3.518 118.883 3.478C119.215 3.434 119.499 3.372 119.735 3.292C119.975 3.212 120.219 3.118 120.467 3.01ZM117.587 4.282C117.079 4.282 116.703 4.42 116.459 4.696C116.219 4.968 116.099 5.316 116.099 5.74C116.099 6.168 116.223 6.52 116.471 6.796C116.719 7.072 117.099 7.21 117.611 7.21C118.059 7.21 118.399 7.08 118.631 6.82C118.867 6.56 118.985 6.198 118.985 5.734C118.985 5.258 118.867 4.898 118.631 4.654C118.399 4.406 118.051 4.282 117.587 4.282ZM132.128 3.55C132.724 3.55 133.222 3.686 133.622 3.958C134.026 4.226 134.328 4.606 134.528 5.098C134.732 5.59 134.834 6.17 134.834 6.838C134.834 7.482 134.73 8.052 134.522 8.548C134.314 9.044 134.008 9.434 133.604 9.718C133.204 9.998 132.708 10.138 132.116 10.138C131.524 10.138 131.026 10.002 130.622 9.73C130.218 9.458 129.912 9.076 129.704 8.584C129.5 8.088 129.398 7.51 129.398 6.85C129.398 6.198 129.502 5.624 129.71 5.128C129.918 4.632 130.224 4.246 130.628 3.97C131.036 3.69 131.536 3.55 132.128 3.55ZM132.128 4.372C131.584 4.372 131.172 4.574 130.892 4.978C130.616 5.378 130.478 6.002 130.478 6.85C130.478 7.682 130.614 8.3 130.886 8.704C131.162 9.108 131.572 9.31 132.116 9.31C132.66 9.31 133.068 9.108 133.34 8.704C133.616 8.3 133.754 7.678 133.754 6.838C133.754 5.998 133.618 5.378 133.346 4.978C133.074 4.574 132.668 4.372 132.128 4.372ZM136.917 10V3.682H137.775L137.853 4.558C138.109 4.234 138.429 3.986 138.813 3.814C139.201 3.638 139.577 3.55 139.941 3.55C140.561 3.55 141.011 3.714 141.291 4.042C141.575 4.37 141.717 4.826 141.717 5.41V10H140.709V6.154C140.709 5.722 140.685 5.374 140.637 5.11C140.589 4.842 140.489 4.648 140.337 4.528C140.185 4.404 139.949 4.342 139.629 4.342C139.381 4.342 139.147 4.396 138.927 4.504C138.711 4.612 138.517 4.748 138.345 4.912C138.177 5.072 138.037 5.234 137.925 5.398V10H136.917Z" fill="#A2F7A3"/>
</svg>
