<svg width="36" height="10" viewBox="0 0 36 10" fill="none" xmlns="http://www.w3.org/2000/svg">
<path d="M3.354 8.304C3.838 8.304 4.22 8.214 4.5 8.034C4.784 7.85 4.926 7.606 4.926 7.302C4.926 7.11 4.89 6.944 4.818 6.804C4.75 6.664 4.608 6.538 4.392 6.426C4.176 6.314 3.844 6.202 3.396 6.09C2.96 5.982 2.58 5.858 2.256 5.718C1.936 5.574 1.686 5.388 1.506 5.16C1.33 4.932 1.242 4.636 1.242 4.272C1.242 3.916 1.342 3.61 1.542 3.354C1.746 3.094 2.028 2.896 2.388 2.76C2.748 2.62 3.166 2.55 3.642 2.55C4.15 2.55 4.592 2.618 4.968 2.754C5.348 2.886 5.67 3.05 5.934 3.246L5.49 3.93C5.25 3.766 4.986 3.632 4.698 3.528C4.41 3.42 4.062 3.366 3.654 3.366C3.158 3.366 2.806 3.444 2.598 3.6C2.39 3.752 2.286 3.95 2.286 4.194C2.286 4.378 2.336 4.532 2.436 4.656C2.54 4.776 2.714 4.886 2.958 4.986C3.202 5.082 3.538 5.188 3.966 5.304C4.378 5.412 4.736 5.542 5.04 5.694C5.348 5.846 5.588 6.046 5.76 6.294C5.932 6.542 6.018 6.862 6.018 7.254C6.018 7.702 5.89 8.066 5.634 8.346C5.378 8.622 5.046 8.824 4.638 8.952C4.234 9.076 3.806 9.138 3.354 9.138C2.782 9.138 2.294 9.056 1.89 8.892C1.49 8.724 1.154 8.522 0.882 8.286L1.458 7.62C1.706 7.824 1.99 7.99 2.31 8.118C2.634 8.242 2.982 8.304 3.354 8.304ZM13.4173 8.682C13.2013 8.826 12.9393 8.938 12.6313 9.018C12.3233 9.098 12.0213 9.138 11.7253 9.138C11.0453 9.138 10.5213 8.96 10.1533 8.604C9.78531 8.248 9.60131 7.79 9.60131 7.23V3.462H8.14931V2.682H9.60131V1.248L10.6093 1.128V2.682H12.7933L12.6733 3.462H10.6093V7.218C10.6093 7.57 10.7013 7.838 10.8853 8.022C11.0733 8.206 11.3833 8.298 11.8153 8.298C12.0513 8.298 12.2693 8.27 12.4693 8.214C12.6693 8.158 12.8553 8.086 13.0273 7.998L13.4173 8.682ZM20.1206 7.62C20.1206 7.872 20.1626 8.056 20.2466 8.172C20.3306 8.288 20.4606 8.374 20.6366 8.43L20.3906 9.138C20.1186 9.102 19.8806 9.016 19.6766 8.88C19.4726 8.74 19.3246 8.53 19.2326 8.25C19.0046 8.542 18.7206 8.764 18.3806 8.916C18.0406 9.064 17.6646 9.138 17.2526 9.138C16.6206 9.138 16.1226 8.96 15.7586 8.604C15.3946 8.248 15.2126 7.776 15.2126 7.188C15.2126 6.536 15.4666 6.036 15.9746 5.688C16.4826 5.34 17.2166 5.166 18.1766 5.166H19.1066V4.638C19.1066 4.182 18.9726 3.86 18.7046 3.672C18.4406 3.48 18.0726 3.384 17.6006 3.384C17.3926 3.384 17.1486 3.41 16.8686 3.462C16.5886 3.51 16.2846 3.592 15.9566 3.708L15.6926 2.946C16.0806 2.802 16.4446 2.7 16.7846 2.64C17.1246 2.58 17.4486 2.55 17.7566 2.55C18.5446 2.55 19.1346 2.734 19.5266 3.102C19.9226 3.466 20.1206 3.962 20.1206 4.59V7.62ZM17.5106 8.37C17.8226 8.37 18.1206 8.292 18.4046 8.136C18.6886 7.976 18.9226 7.756 19.1066 7.476V5.85H18.1946C17.4986 5.85 17.0066 5.97 16.7186 6.21C16.4346 6.45 16.2926 6.772 16.2926 7.176C16.2926 7.568 16.3926 7.866 16.5926 8.07C16.7966 8.27 17.1026 8.37 17.5106 8.37ZM25.6479 8.268C25.9639 8.268 26.2579 8.216 26.5299 8.112C26.8059 8.008 27.0599 7.876 27.2919 7.716L27.7839 8.376C27.5079 8.612 27.1759 8.798 26.7879 8.934C26.3999 9.07 26.0199 9.138 25.6479 9.138C25.0199 9.138 24.4839 9.004 24.0399 8.736C23.5999 8.464 23.2639 8.084 23.0319 7.596C22.7999 7.104 22.6839 6.528 22.6839 5.868C22.6839 5.236 22.7999 4.67 23.0319 4.17C23.2679 3.666 23.6059 3.27 24.0459 2.982C24.4899 2.694 25.0279 2.55 25.6599 2.55C26.0639 2.55 26.4419 2.612 26.7939 2.736C27.1499 2.856 27.4759 3.038 27.7719 3.282L27.2799 3.954C27.0119 3.766 26.7419 3.626 26.4699 3.534C26.2019 3.438 25.9279 3.39 25.6479 3.39C25.1039 3.39 24.6559 3.594 24.3039 4.002C23.9519 4.41 23.7759 5.032 23.7759 5.868C23.7759 6.428 23.8559 6.886 24.0159 7.242C24.1799 7.594 24.4019 7.854 24.6819 8.022C24.9659 8.186 25.2879 8.268 25.6479 8.268ZM35.2793 2.682L32.4353 5.526L35.6093 9H34.2833L31.1753 5.55L33.9713 2.682H35.2793ZM31.0613 0.0119998V9H30.0533V0.137999L31.0613 0.0119998Z" fill="#A2F7A3"/>
</svg>
